<?xml version="1.0" standalone="no"?>
<!DOCTYPE svg PUBLIC "-//W3C//DTD SVG 20010904//EN"
 "http://www.w3.org/TR/2001/REC-SVG-20010904/DTD/svg10.dtd">
<svg version="1.0" xmlns="http://www.w3.org/2000/svg"
 width="2022.000000pt" height="2022.000000pt" viewBox="0 0 2022.000000 2022.000000"
 preserveAspectRatio="xMidYMid meet">
<metadata>
Created by potrace 1.14, written by Peter Selinger 2001-2017
</metadata>
<g transform="translate(0.000000,2022.000000) scale(0.100000,-0.100000)"
fill="#000000" stroke="none">
<path d="M12860 18187 c-102 -34 -169 -74 -235 -141 -84 -84 -139 -188 -160
-301 -3 -16 -5 -750 -6 -1629 0 -1465 2 -1606 17 -1678 9 -43 21 -78 25 -78 5
0 9 -7 9 -16 0 -31 82 -137 195 -253 62 -64 154 -159 205 -211 50 -52 209
-216 353 -364 144 -149 291 -300 327 -337 100 -103 566 -583 650 -669 83 -86
508 -524 646 -666 219 -226 615 -634 679 -700 277 -282 570 -587 573 -593 3
-9 -3665 -6 -3803 3 -310 20 -346 22 -450 31 -38 4 -86 8 -105 10 -19 2 -80 9
-135 15 -55 6 -112 12 -125 15 -14 2 -60 9 -103 15 -85 13 -91 14 -217 36
-241 43 -647 147 -780 201 -8 3 -19 7 -25 9 -128 37 -522 216 -705 321 -123
71 -304 189 -425 277 -75 54 -78 57 -141 108 -23 18 -58 47 -79 63 -21 17 -43
35 -49 40 -6 6 -29 25 -51 44 -206 175 -608 575 -802 797 -10 11 -41 47 -70
80 -28 32 -61 70 -73 84 -12 14 -36 41 -53 60 -47 52 -117 135 -271 320 -76
91 -145 174 -154 185 -10 11 -76 92 -147 180 -71 88 -134 165 -140 171 -5 6
-22 26 -37 45 -14 19 -90 113 -168 209 -78 96 -154 190 -168 209 -15 19 -31
39 -37 45 -5 6 -55 67 -110 136 -55 69 -110 136 -122 150 -11 14 -67 81 -123
150 -56 69 -109 134 -118 145 -66 79 -274 330 -352 425 -52 63 -105 126 -116
140 -12 14 -102 122 -200 241 -225 272 -731 882 -804 970 -30 36 -70 84 -87
105 -18 22 -46 56 -62 75 -70 83 -355 427 -379 458 -128 161 -203 222 -339
274 l-58 22 -1730 2 c-1473 2 -1738 0 -1783 -13 -197 -53 -337 -183 -402 -374
l-23 -65 -1 -1619 c-1 -1252 2 -1633 11 -1680 28 -136 81 -211 318 -451 39
-39 180 -185 315 -324 135 -140 281 -291 325 -336 44 -45 197 -203 340 -350
143 -148 294 -303 335 -345 41 -43 192 -198 335 -345 143 -147 303 -312 355
-366 52 -54 199 -204 325 -335 127 -130 273 -281 325 -335 52 -53 203 -209
335 -345 132 -136 271 -278 308 -316 47 -48 62 -68 50 -68 -10 -1 -738 -2
-1618 -4 -880 -1 -1607 -5 -1615 -8 -8 -3 -28 -8 -45 -13 -137 -35 -280 -158
-344 -297 -22 -45 -43 -110 -48 -143 -5 -33 -8 -780 -8 -1660 1 -1504 2 -1604
19 -1659 38 -128 77 -184 251 -362 39 -39 185 -190 325 -335 140 -144 289
-297 330 -340 41 -42 185 -190 320 -329 342 -353 363 -375 656 -676 144 -148
294 -303 334 -344 39 -41 190 -196 333 -344 144 -148 296 -304 337 -346 717
-740 722 -745 784 -785 56 -36 144 -69 211 -80 51 -8 3308 -9 3355 0 47 8 147
42 187 63 59 32 141 107 181 167 53 79 67 108 88 185 16 60 17 179 18 1650 1
872 -2 1610 -7 1640 -12 89 -34 151 -74 217 -36 59 -66 94 -242 278 -42 44
-131 139 -197 210 -67 72 -141 150 -164 175 -23 25 -104 110 -179 189 -75 79
-151 160 -170 180 -18 20 -86 92 -151 161 -64 69 -132 141 -150 160 -18 19
-91 98 -164 174 -72 76 -147 156 -166 176 -19 21 -90 95 -156 166 -67 71 -136
145 -154 164 -27 30 -87 93 -335 356 -16 18 -84 89 -150 160 -66 70 -133 141
-150 159 -16 17 -86 90 -154 163 -68 73 -140 150 -160 171 -30 31 -132 140
-326 346 -16 17 -86 91 -155 165 -69 73 -138 146 -154 162 l-28 29 1678 -4
c924 -1 1690 -6 1704 -9 14 -4 61 -9 105 -13 44 -4 87 -8 95 -10 8 -2 44 -6
80 -10 36 -4 68 -9 71 -10 3 -2 27 -6 55 -9 335 -39 987 -236 1383 -417 36
-17 102 -47 146 -67 143 -66 453 -232 560 -299 11 -7 38 -22 60 -34 22 -12 42
-24 45 -28 3 -3 34 -24 68 -45 74 -45 157 -98 190 -123 13 -9 32 -22 42 -27
41 -23 431 -305 450 -326 3 -3 23 -19 45 -35 22 -16 49 -37 60 -46 307 -255
349 -291 540 -463 290 -263 735 -716 1020 -1041 39 -44 77 -87 85 -95 8 -9 26
-30 40 -46 14 -16 90 -103 169 -194 79 -91 169 -194 200 -230 78 -90 150 -168
261 -280 116 -119 766 -783 870 -889 259 -266 610 -628 675 -696 43 -44 186
-192 319 -329 132 -137 275 -283 316 -326 666 -689 628 -651 701 -696 53 -32
139 -68 139 -59 0 3 12 -1 28 -7 41 -18 3308 -19 3409 -2 173 29 328 151 402
315 16 35 33 82 37 104 5 22 9 778 9 1680 l0 1640 -24 70 c-39 114 -59 142
-250 343 -69 74 -142 151 -161 171 -32 35 -259 276 -340 361 -19 21 -93 99
-165 175 -71 76 -143 153 -160 170 -16 18 -91 97 -165 176 -74 79 -169 179
-211 224 -42 44 -91 96 -109 115 -18 19 -64 69 -104 110 -90 96 -351 373 -391
415 -16 18 -89 95 -161 171 -72 77 -146 155 -164 174 -18 19 -90 96 -160 170
-70 74 -147 155 -170 180 -36 39 -215 230 -320 340 -144 153 -290 307 -314
334 -16 17 -68 72 -115 121 l-86 90 205 2 c113 2 813 4 1555 6 1272 2 1353 4
1395 21 93 37 165 83 224 141 69 69 109 137 142 239 l23 71 0 1610 c0 1054 -3
1629 -10 1665 -12 66 -77 203 -116 246 -15 18 -84 91 -153 164 -69 73 -138
147 -155 165 -16 17 -68 72 -115 121 -70 75 -237 252 -350 373 -63 67 -299
318 -330 351 -19 20 -91 97 -160 170 -69 73 -150 159 -180 191 -30 32 -102
108 -160 170 -58 62 -118 126 -135 144 -48 50 -280 296 -322 341 -21 22 -94
101 -163 174 -69 74 -141 150 -160 170 -19 20 -90 95 -156 166 -67 71 -139
147 -160 170 -22 22 -91 96 -154 164 -63 67 -135 144 -160 170 -25 26 -101
107 -170 180 -169 181 -209 220 -261 256 -50 35 -131 69 -202 84 -32 7 -616
10 -1770 9 l-1722 -1 -65 -21z"/>
</g>
</svg>
